PathFileType	4	(X/Y/Z)	c:/Users/goper/Files/vsCode/490R/osim_files/A03/A03_Static03.trc
DataRate	CameraRate	NumFrames	NumMarkers	Units                	OrigDataRate	OrigDataStartFrame	OrigNumFrames
250.00	250.00	10	36	mm	250.0	250	1993
                Frame#	Time	LPSIS			LASIS			LTH1			LTH2			LTH3			LTH4			LLFE			LMFE			LSH1			LSH2			LSH3			LSH4			LLMAL			LMMAL			LCAL			LMTP5			LTOE			LMTP1			RPSIS			RASIS			RTH1			RTH2			RTH3			RTH4			RLFE			RMFE			RSH1			RSH2			RSH3			RSH4			RLMAL			RMMAL			RCAL			RMTP1			RTOE			RMTP5		
		X1	Y1	Z1	X2	Y2	Z2	X3	Y3	Z3	X4	Y4	Z4	X5	Y5	Z5	X6	Y6	Z6	X7	Y7	Z7	X8	Y8	Z8	X9	Y9	Z9	X10	Y10	Z10	X11	Y11	Z11	X12	Y12	Z12	X13	Y13	Z13	X14	Y14	Z14	X15	Y15	Z15	X16	Y16	Z16	X17	Y17	Z17	X18	Y18	Z18	X19	Y19	Z19	X20	Y20	Z20	X21	Y21	Z21	X22	Y22	Z22	X23	Y23	Z23	X24	Y24	Z24	X25	Y25	Z25	X26	Y26	Z26	X27	Y27	Z27	X28	Y28	Z28	X29	Y29	Z29	X30	Y30	Z30	X31	Y31	Z31	X32	Y32	Z32	X33	Y33	Z33	X34	Y34	Z34	X35	Y35	Z35	X36	Y36	Z36

250	0.99600	-358.92831	1051.48572	431.82812	-109.65939	991.55511	318.66016	-168.43521	646.00269	245.65511	-157.45326	603.86877	242.76074	-107.40513	652.23859	261.46307	-107.09537	608.52667	257.46655	-159.52362	557.86261	248.27795	-134.03214	530.38275	401.07480	-214.52301	477.94043	243.12181	-218.42200	429.61725	239.79604	-153.09447	464.50970	243.50066	-168.02870	418.96457	244.09810	-261.48334	105.01166	236.90697	-244.45740	104.44054	329.61917	-329.45218	85.03163	294.21033	-116.81956	41.58066	207.95511	-80.56480	68.88521	274.65387	-107.18913	48.26425	321.92831	-363.17780	1058.88171	511.14713	-121.87484	990.37292	623.47156	-213.35161	630.68079	695.12427	-206.40999	586.37183	693.38043	-152.51724	633.92621	700.95685	-151.90224	589.56323	698.90698	-184.05815	547.92590	687.48737	-123.16398	540.91760	575.49615	-241.26831	487.22870	683.42334	-251.08817	448.76392	698.55994	-183.16354	472.66779	699.96490	-202.12123	431.46912	712.26971	-278.31854	130.54362	690.14325	-233.86140	129.77055	614.01056	-333.68234	87.29026	637.28375	-120.69476	48.49694	610.14166	-93.85184	70.87514	660.58075	-129.92958	40.82184	728.87042
251	1.00000	-359.08215	1051.47729	431.79050	-109.78384	991.56787	318.72968	-168.50366	646.00781	245.70424	-157.48097	603.87573	242.81102	-107.43777	652.27466	261.53827	-107.12237	608.54633	257.52615	-159.56915	557.87994	248.33328	-134.08542	530.41217	401.13776	-214.58524	477.95267	243.16173	-218.48405	429.62024	239.84531	-153.13748	464.50525	243.53912	-168.09245	418.97894	244.13080	-261.49002	105.01463	236.89705	-244.43314	104.43743	329.63019	-329.47668	85.05000	294.23068	-116.99635	41.47757	207.95154	-80.54513	68.90611	274.62369	-107.16383	48.28057	321.93137	-363.30194	1058.85815	511.04388	-122.06490	990.44922	623.52612	-213.50681	630.69598	695.15771	-206.54356	586.40802	693.41199	-152.66464	633.98206	700.99622	-152.02211	589.60059	698.93433	-184.17432	547.98767	687.52814	-123.27419	540.97162	575.56635	-241.39439	487.23904	683.44904	-251.19196	448.78687	698.57312	-183.25368	472.70914	700.00006	-202.21758	431.49057	712.29236	-278.34579	130.54028	690.13049	-233.87183	129.75644	613.99152	-333.67279	87.27249	637.25134	-120.69730	48.50967	610.11707	-93.84805	70.89620	660.58752	-129.89914	40.82950	728.86359
252	1.00400	-359.24362	1051.46326	431.74478	-109.88342	991.57233	318.81506	-168.55823	646.01288	245.75247	-157.51239	603.92157	242.86899	-107.47544	652.29700	261.60001	-107.16090	608.57312	257.59644	-159.60864	557.90430	248.39302	-134.12817	530.39014	401.18274	-214.65260	477.95410	243.21335	-218.46815	429.63107	239.85735	-153.15649	464.51962	243.58853	-168.10127	418.99362	244.17216	-261.47867	105.02928	236.92113	-244.43855	104.44659	329.63705	-329.45721	85.03543	294.21979	-117.00864	41.47621	207.96820	-80.55935	68.90838	274.61826	-107.15291	48.29246	321.92062	-363.50140	1058.85840	511.02975	-122.25784	990.50378	623.60541	-213.63715	630.73907	695.18103	-206.65680	586.44873	693.43964	-152.77017	634.03607	701.06116	-152.15291	589.65594	698.98413	-184.29977	548.00623	687.53668	-123.38727	540.97760	575.63464	-241.51274	487.24826	683.48584	-251.28468	448.77869	698.59106	-183.33350	472.74942	700.02466	-202.30905	431.52448	712.31781	-278.33292	130.54744	690.13531	-233.87025	129.77502	614.00323	-333.64978	87.30281	637.23517	-120.72727	48.51206	610.12958	-93.83871	70.90794	660.59186	-129.90201	40.82684	728.86292
253	1.00800	-359.35309	1051.45886	431.66873	-110.00018	991.57385	318.87567	-168.55450	646.02295	245.79536	-157.55000	603.92181	242.91571	-107.53294	652.30634	261.67798	-107.19731	608.56732	257.66763	-159.67497	557.92310	248.41315	-134.15280	530.41016	401.22824	-214.66936	477.97134	243.25801	-218.51250	429.65790	239.88283	-153.18716	464.54382	243.62395	-168.13992	419.00046	244.20749	-261.44849	105.04723	236.88385	-244.44203	104.44491	329.63779	-329.42422	85.04514	294.20651	-116.99982	41.47171	207.96472	-80.63622	68.83899	274.59256	-107.15240	48.27711	321.92337	-363.73889	1058.87292	510.98615	-122.45271	990.54547	623.65466	-213.76936	630.75177	695.19513	-206.78552	586.47180	693.46033	-152.91661	634.06921	701.09021	-152.27098	589.70270	699.01270	-184.37970	548.04456	687.58643	-123.52727	541.00708	575.68372	-241.58362	487.26727	683.50677	-251.36211	448.78937	698.61664	-183.44595	472.76447	700.04449	-202.38977	431.56802	712.37518	-278.30786	130.55920	690.14594	-233.93298	129.75835	614.05640	-333.61816	87.32092	637.21558	-120.69872	48.52396	610.12469	-93.83469	70.91222	660.58429	-129.88445	40.83243	728.87402
254	1.01200	-359.52231	1051.45935	431.58365	-110.11336	991.58582	318.95630	-168.61777	646.04169	245.85699	-157.58392	603.93744	242.96204	-107.56265	652.31683	261.73242	-107.23840	608.60565	257.74039	-159.69287	557.92975	248.47842	-134.17973	530.40436	401.26492	-214.69336	477.97479	243.29185	-218.53972	429.64557	239.93098	-153.21365	464.54657	243.66940	-168.16306	419.01385	244.25684	-261.47516	105.05352	236.92271	-244.43633	104.44490	329.65622	-329.45239	85.05196	294.24213	-117.02017	41.46452	207.98402	-80.53423	68.89630	274.64130	-107.17893	48.25986	321.92816	-363.93491	1058.87439	510.96875	-122.69336	990.58032	623.71619	-213.90970	630.76581	695.24664	-206.88718	586.48657	693.50128	-153.06467	634.09692	701.13214	-152.41010	589.72534	699.06744	-184.51711	548.07928	687.61743	-123.59756	541.03809	575.73834	-241.68829	487.27313	683.54126	-251.45337	448.81909	698.65186	-183.53668	472.79675	700.09369	-202.48642	431.57410	712.39093	-278.33401	130.55238	690.17413	-233.87971	129.76331	614.06824	-333.62946	87.33244	637.23401	-120.69691	48.52150	610.14728	-93.82789	70.89436	660.58960	-129.90154	40.80805	728.86597
255	1.01600	-359.66864	1051.45923	431.53659	-110.20596	991.61584	319.02036	-168.64290	646.03912	245.90446	-157.58621	603.94537	243.01837	-107.61172	652.33740	261.80432	-107.26488	608.61743	257.80164	-159.72261	557.95850	248.52931	-134.23840	530.40277	401.33145	-214.74052	477.98740	243.33913	-218.56268	429.64731	239.98743	-153.23944	464.56311	243.69455	-168.19099	419.03140	244.28778	-261.45688	105.04367	236.91287	-244.41246	104.44585	329.67203	-329.42648	85.03669	294.23483	-116.99107	41.48083	207.96645	-80.52642	68.88953	274.64450	-107.15459	48.25584	321.94775	-364.14539	1058.87292	510.86679	-122.88551	990.61108	623.75861	-214.00470	630.77246	695.27484	-207.00438	586.52197	693.53473	-153.18861	634.12402	701.15100	-152.53365	589.77161	699.09436	-184.60379	548.08527	687.65521	-123.69360	541.08881	575.78510	-241.78783	487.27707	683.57019	-251.53137	448.81555	698.69360	-183.61578	472.81400	700.11420	-202.58235	431.59207	712.42847	-278.31519	130.53641	690.19214	-233.92598	129.76962	614.09259	-333.57947	87.32204	637.22888	-120.68432	48.52832	610.13312	-93.83240	70.90015	660.62048	-129.89502	40.79726	728.88837
256	1.02000	-359.84409	1051.47949	431.48151	-110.32001	991.62494	319.09570	-168.67668	646.06934	245.97798	-157.64636	603.96143	243.07446	-107.63324	652.36688	261.88214	-107.31101	608.62830	257.86612	-159.74901	557.97510	248.57750	-134.25679	530.39917	401.36737	-214.76308	477.99252	243.38863	-218.56973	429.65271	240.00542	-153.25824	464.58975	243.74815	-168.22206	419.04227	244.33992	-261.47766	105.05500	236.92256	-244.41409	104.49067	329.72128	-329.45810	85.03827	294.22183	-117.01065	41.48823	207.96909	-80.52540	68.89713	274.62192	-107.15256	48.24966	321.93283	-364.34308	1058.86694	510.82608	-123.04924	990.68054	623.82318	-214.14441	630.78809	695.28571	-207.09076	586.53632	693.54382	-153.31886	634.15204	701.18274	-152.64175	589.80005	699.13287	-184.66814	548.12616	687.65216	-123.85133	541.11676	575.83020	-241.87259	487.28943	683.58124	-251.61357	448.80835	698.70209	-183.70422	472.85580	700.15881	-202.61108	431.64737	712.43652	-278.30731	130.55475	690.19269	-233.93443	129.78061	614.10394	-333.61752	87.34456	637.26001	-120.66872	48.54410	610.14032	-93.82273	70.90581	660.61920	-129.88469	40.78975	728.88489
257	1.02400	-359.93011	1051.47620	431.36743	-110.39478	991.66760	319.15775	-168.72395	646.07281	246.02473	-157.66710	603.96686	243.12396	-107.69817	652.37280	261.96722	-107.33541	608.64160	257.92957	-159.80052	557.96942	248.63535	-134.30695	530.41858	401.41086	-214.80911	477.98541	243.43141	-218.60382	429.67184	240.05287	-153.32977	464.57205	243.78767	-168.24911	419.06198	244.37422	-261.49054	105.04365	236.93050	-244.39925	104.41705	329.67267	-329.45914	85.02969	294.24640	-117.01129	41.49837	207.98508	-80.50383	68.91951	274.64215	-107.13289	48.27264	321.93021	-364.55493	1058.86218	510.75815	-123.23846	990.74158	623.84485	-214.31178	630.81433	695.31366	-207.20583	586.57281	693.57300	-153.46718	634.19720	701.21179	-152.75948	589.86493	699.15680	-184.82513	548.16180	687.69751	-123.92663	541.16656	575.86505	-241.99065	487.31363	683.60724	-251.70976	448.85495	698.68671	-183.81342	472.90390	700.15240	-202.71204	431.65585	712.46674	-278.30209	130.55490	690.20392	-233.92371	129.79558	614.12781	-333.57416	87.34285	637.23724	-120.66428	48.57269	610.15082	-93.81020	70.90519	660.60101	-129.85295	40.81620	728.88306
258	1.02800	-360.06592	1051.49109	431.30377	-110.49451	991.64417	319.20349	-168.78534	646.07263	246.08701	-157.72549	603.97229	243.18616	-107.75115	652.39752	262.03204	-107.40720	608.65186	257.99097	-159.85558	557.97119	248.67868	-134.35524	530.41309	401.46887	-214.82654	477.98145	243.46225	-218.65710	429.67490	240.10756	-153.35338	464.59372	243.83438	-168.28839	419.05475	244.39905	-261.48734	105.05067	236.94009	-244.42638	104.42332	329.66641	-329.43164	85.03097	294.26083	-117.00064	41.49660	207.96381	-80.49516	68.95863	274.63489	-107.16512	48.25859	321.94864	-364.70981	1058.88135	510.64566	-123.46605	990.80347	623.88715	-214.44258	630.84277	695.32788	-207.35590	586.60205	693.58484	-153.61638	634.24829	701.21472	-152.87704	589.91223	699.17194	-184.94353	548.17633	687.71777	-124.05646	541.19830	575.87885	-242.13115	487.31381	683.61084	-251.86456	448.87952	698.69989	-183.95520	472.91718	700.16052	-202.81912	431.69781	712.50720	-278.32288	130.56001	690.21252	-233.91916	129.82990	614.13220	-333.60034	87.36309	637.24792	-120.69467	48.55126	610.13385	-93.79985	70.92626	660.62134	-129.86879	40.81226	728.89410
259	1.03200	-360.23038	1051.49109	431.21979	-110.59076	991.67676	319.28958	-168.80212	646.06464	246.12137	-157.76012	603.97479	243.22672	-107.79253	652.37677	262.10233	-107.44650	608.65515	258.06802	-159.87740	557.97308	248.73112	-134.42542	530.37933	401.52319	-214.85747	477.99542	243.50800	-218.68137	429.65576	240.12820	-153.39409	464.60013	243.89391	-168.32520	419.04251	244.43843	-261.50525	105.04680	236.93993	-244.43433	104.41509	329.67587	-329.46182	85.02086	294.25366	-117.01693	41.49657	207.98433	-80.55215	68.87315	274.65381	-107.15730	48.24798	321.94141	-364.87256	1058.88074	510.56827	-123.72680	990.83777	623.94598	-214.63145	630.86615	695.35370	-207.53438	586.61005	693.58801	-153.76904	634.26599	701.24420	-153.01997	589.92535	699.19397	-185.10757	548.21429	687.74017	-124.15872	541.25092	575.90613	-242.27673	487.32114	683.62469	-251.96385	448.89178	698.73132	-184.12105	472.94193	700.18445	-202.96500	431.71274	712.50482	-278.37732	130.53816	690.20636	-233.92526	129.81085	614.15717	-333.61557	87.37615	637.25519	-120.69205	48.55432	610.16174	-93.83627	70.89765	660.63330	-129.88867	40.78271	728.89832
